<svg width="200" height="200" viewBox="0 0 200 200" fill="none" xmlns="http://www.w3.org/2000/svg">
  <!-- Cabinet Frame/Body -->
  <rect x="30" y="20" width="140" height="160" rx="4" fill="#8B4513"/>
  
  <!-- Inner Cabinet -->
  <rect x="35" y="25" width="130" height="150" rx="2" fill="#D2B48C"/>
  
  <!-- Glass Front -->
  <rect x="40" y="30" width="120" height="140" rx="2" fill="#E6F7FF" fill-opacity="0.2" stroke="#4A5568" stroke-width="2"/>
  
  <!-- Glass Reflection/Shine -->
  <path d="M 45 35 L 65 35 L 50 55 L 45 50 Z" fill="white" fill-opacity="0.4"/>
  
  <!-- Shelves -->
  <line x1="40" y1="85" x2="160" y2="85" stroke="#8B4513" stroke-width="3"/>
  <line x1="40" y1="130" x2="160" y2="130" stroke="#8B4513" stroke-width="3"/>
  
  <!-- Top Shelf Items -->
  <!-- Abstract Sculpture - Twisted Form -->
  <path d="M 55 75 Q 58 65 60 58 Q 62 65 65 75" fill="#4A5568" stroke="#1E293B" stroke-width="1.5"/>
  <ellipse cx="60" cy="75" rx="6" ry="2" fill="#2D3748"/>
  <path d="M 58 70 Q 60 68 62 70" fill="none" stroke="#94A3B8" stroke-width="1"/>
  
  <!-- African Mask -->
  <ellipse cx="90" cy="62" rx="8" ry="12" fill="#5C4033" stroke="#3E2723" stroke-width="1.5"/>
  <ellipse cx="87" cy="59" rx="2" ry="3" fill="#1E1E1E"/>
  <ellipse cx="93" cy="59" rx="2" ry="3" fill="#1E1E1E"/>
  <path d="M 88 66 L 90 68 L 92 66" fill="none" stroke="#3E2723" stroke-width="1.5" stroke-linecap="round"/>
  <line x1="85" y1="56" x2="82" y2="52" stroke="#8B4513" stroke-width="2" stroke-linecap="round"/>
  <line x1="95" y1="56" x2="98" y2="52" stroke="#8B4513" stroke-width="2" stroke-linecap="round"/>
  <rect x="88" y="69" width="4" height="4" fill="#E6B800"/>
  <line x1="84" y1="63" x2="96" y2="63" stroke="#8B4513" stroke-width="1"/>
  
  <!-- Modern Art - Balanced Stones Sculpture -->
  <ellipse cx="118" cy="74" rx="10" ry="3" fill="#78716C"/>
  <ellipse cx="118" cy="68" rx="8" ry="2.5" fill="#A8A29E"/>
  <ellipse cx="118" cy="62" rx="6" ry="2" fill="#D6D3D1"/>
  <ellipse cx="118" cy="57" rx="4" ry="1.5" fill="#78716C"/>
  
  <!-- Framed Mona Lisa -->
  <rect x="140" y="52" width="18" height="24" rx="1" fill="#654321" stroke="#3E2723" stroke-width="2"/>
  <rect x="143" y="55" width="12" height="18" fill="#2D1810"/>
  <ellipse cx="149" cy="61" rx="3" ry="4" fill="#D2B48C"/>
  <circle cx="149" cy="61" r="1.5" fill="#8B4513"/>
  <path d="M 147 58 Q 149 57 151 58" stroke="#3E2723" stroke-width="0.8" fill="none"/>
  <path d="M 147 64 Q 149 65 151 64" stroke="#C19A6B" stroke-width="0.8" fill="none"/>
  <rect x="145" y="66" width="8" height="6" fill="#1B5E20"/>
  
  <!-- Middle Shelf Items -->
  <!-- Glass Art Piece - Flowing Form -->
  <path d="M 53 95 Q 55 100 53 105 Q 51 110 53 115 Q 55 120 53 122" fill="none" stroke="#06B6D4" stroke-width="4" opacity="0.6"/>
  <path d="M 57 95 Q 59 100 57 105 Q 55 110 57 115 Q 59 120 57 122" fill="none" stroke="#67E8F9" stroke-width="3" opacity="0.8"/>
  <ellipse cx="55" cy="122" rx="4" ry="1.5" fill="#0891B2" opacity="0.5"/>
  
  <!-- Ancient Scroll with Writing -->
  <ellipse cx="75" cy="105" rx="3" ry="12" fill="#D2B48C"/>
  <ellipse cx="92" cy="105" rx="3" ry="12" fill="#D2B48C"/>
  <rect x="75" y="93" width="17" height="24" fill="#F5E6D3"/>
  <path d="M 77 97 L 89 97" stroke="#8B4513" stroke-width="0.6"/>
  <path d="M 77 100 L 88 100" stroke="#8B4513" stroke-width="0.6"/>
  <path d="M 77 103 L 89 103" stroke="#8B4513" stroke-width="0.6"/>
  <path d="M 77 106 L 87 106" stroke="#8B4513" stroke-width="0.6"/>
  <path d="M 77 109 L 89 109" stroke="#8B4513" stroke-width="0.6"/>
  <path d="M 77 112 L 88 112" stroke="#8B4513" stroke-width="0.6"/>
  <path d="M 77 115 L 89 115" stroke="#8B4513" stroke-width="0.6"/>
  
  <!-- Papua New Guinea Fertility Statue -->
  <ellipse cx="113" cy="122" rx="4" ry="1.5" fill="#5C4033"/>
  <rect x="111" y="110" width="4" height="12" rx="1" fill="#8B4513"/>
  <ellipse cx="113" cy="108" rx="3" ry="4" fill="#8B4513"/>
  <circle cx="113" cy="102" r="3" fill="#8B4513"/>
  <circle cx="112" cy="101" r="0.8" fill="#1E1E1E"/>
  <circle cx="114" cy="101" r="0.8" fill="#1E1E1E"/>
  <path d="M 110 107 L 108 109" stroke="#8B4513" stroke-width="1.5" stroke-linecap="round"/>
  <path d="M 116 107 L 118 109" stroke="#8B4513" stroke-width="1.5" stroke-linecap="round"/>
  
  <!-- Marble Bust on Pedestal -->
  <rect x="136" y="115" width="8" height="7" rx="1" fill="#8B4513"/>
  <rect x="138" y="108" width="4" height="7" fill="#F5F5DC"/>
  <circle cx="140" cy="105" r="3.5" fill="#F5F5DC"/>
  <ellipse cx="140" cy="103" rx="1.5" ry="0.8" fill="#1E293B"/>
  <path d="M 138 105 Q 140 107 142 105" fill="none" stroke="#D6D3D1" stroke-width="0.8"/>
  
  <!-- Bottom Shelf Items -->
  <!-- Amethyst Geode -->
  <ellipse cx="60" cy="152" rx="12" ry="10" fill="#4A4A4A" stroke="#2D2D2D" stroke-width="1.5"/>
  <ellipse cx="60" cy="152" rx="9" ry="7" fill="#6B46C1"/>
  <path d="M 56 150 L 58 148 L 60 150 L 58 152 Z" fill="#9F7AEA"/>
  <path d="M 61 149 L 63 147 L 65 149 L 63 151 Z" fill="#B794F4"/>
  <path d="M 57 154 L 59 152 L 61 154 L 59 156 Z" fill="#9F7AEA"/>
  <circle cx="58" cy="151" r="1" fill="#E9D8FD"/>
  <circle cx="62" cy="153" r="1" fill="#E9D8FD"/>
  
  <!-- Hieroglyphic Scroll -->
  <ellipse cx="85" cy="152" rx="3" ry="11" fill="#C19A6B"/>
  <ellipse cx="100" cy="152" rx="3" ry="11" fill="#C19A6B"/>
  <rect x="85" y="141" width="15" height="22" fill="#DEB887"/>
  <rect x="87" y="145" width="2" height="3" fill="#8B4513"/>
  <circle cx="88" cy="149" r="1" fill="#8B4513"/>
  <path d="M 91 145 Q 91 147 93 147 Q 93 145 91 145 Z" fill="#8B4513"/>
  <rect x="87" y="150" width="2" height="3" fill="#8B4513"/>
  <path d="M 91 151 L 93 151 L 92 153 Z" fill="#8B4513"/>
  <circle cx="88" cy="155" r="1" fill="#8B4513"/>
  <path d="M 91 155 Q 92 154 93 155 Q 92 156 91 155 Z" fill="#8B4513"/>
  <rect x="95" y="145" width="2" height="3" fill="#8B4513"/>
  <path d="M 95 150 L 97 150 L 96 152 Z" fill="#8B4513"/>
  <circle cx="96" cy="155" r="1" fill="#8B4513"/>
  
  <!-- Statue of David -->
  <ellipse cx="118" cy="164" rx="5" ry="2" fill="#B8860B"/>
  <rect x="116" y="152" width="4" height="12" rx="1" fill="#F5F5DC"/>
  <ellipse cx="118" cy="150" rx="3" ry="4" fill="#F5F5DC"/>
  <circle cx="118" cy="145" r="3" fill="#F5F5DC"/>
  <path d="M 115 148 L 112 151" stroke="#F5F5DC" stroke-width="1.5" stroke-linecap="round"/>
  <path d="M 121 148 L 124 151" stroke="#F5F5DC" stroke-width="1.5" stroke-linecap="round"/>
  <circle cx="117" cy="144" r="0.8" fill="#8B7355"/>
  <circle cx="119" cy="144" r="0.8" fill="#8B7355"/>
  <line x1="117" y1="146" x2="119" y2="146" stroke="#C19A6B" stroke-width="0.5"/>
  
  <!-- Classical Greek Urn -->
  <path d="M 143 145 L 141 150 Q 140 156 141 162 Q 142 165 143 165 Q 144 165 145 162 Q 146 156 145 150 L 143 145 Z" fill="#DC2626" stroke="#991B1B" stroke-width="1"/>
  <ellipse cx="143" cy="145" rx="4" ry="2" fill="#DC2626" stroke="#991B1B" stroke-width="1"/>
  <ellipse cx="143" cy="165" rx="5" ry="2" fill="#991B1B"/>
  <path d="M 141 152 Q 143 150 145 152" stroke="#1E1E1E" stroke-width="1" fill="none"/>
  <path d="M 141 158 Q 143 156 145 158" stroke="#1E1E1E" stroke-width="1" fill="none"/>
  
  <!-- Cabinet Feet -->
  <rect x="35" y="175" width="15" height="8" rx="1" fill="#654321"/>
  <rect x="150" y="175" width="15" height="8" rx="1" fill="#654321"/>
  
  <!-- Cabinet Top Trim -->
  <rect x="25" y="15" width="150" height="5" rx="1" fill="#654321"/>
  
  <!-- Door Frame Details -->
  <rect x="40" y="30" width="120" height="140" rx="2" fill="none" stroke="#654321" stroke-width="1.5"/>
  
  <!-- Door Handle -->
  <circle cx="150" cy="100" r="3" fill="#D4AF37" stroke="#B8860B" stroke-width="1"/>
</svg>